<svg width="47" height="38" xmlns="http://www.w3.org/2000/svg" xmlns:xlink="http://www.w3.org/1999/xlink" xml:space="preserve" overflow="hidden"><g transform="translate(-174 -764)"><path d="M38 19C38 8.50547 29.4945 0 19 0 8.50547 0 0 8.50547 0 19 0 27.9062 6.13789 35.3875 14.4133 37.4434L14.4133 24.8039 10.4945 24.8039 10.4945 19 14.4133 19 14.4133 16.4988C14.4133 10.0344 17.3375 7.03594 23.6906 7.03594 24.893 7.03594 26.9711 7.27344 27.8246 7.51094L27.8246 12.7656C27.3793 12.7211 26.6 12.6914 25.6277 12.6914 22.5105 12.6914 21.3082 13.8715 21.3082 16.9367L21.3082 19 27.5129 19 26.4441 24.8039 21.3008 24.8039 21.3008 37.859C30.7117 36.7234 38 28.7152 38 19L38 19Z" transform="matrix(1.23684 0 0 1 174 764)"/></g></svg>