<svg width="47" height="42" xmlns="http://www.w3.org/2000/svg" xmlns:xlink="http://www.w3.org/1999/xlink" xml:space="preserve" overflow="hidden"><defs><clipPath id="clip0"><rect x="48" y="761" width="47" height="42"/></clipPath></defs><g clip-path="url(#clip0)" transform="translate(-48 -761)"><path d="M34.125 2.625 2.6168 2.625C1.17305 2.625 0 3.81445 0 5.27461L0 36.7254C0 38.1855 1.17305 39.375 2.6168 39.375L34.125 39.375C35.5688 39.375 36.75 38.1855 36.75 36.7254L36.75 5.27461C36.75 3.81445 35.5688 2.625 34.125 2.625ZM11.107 34.125 5.66016 34.125 5.66016 16.5867 11.1152 16.5867 11.1152 34.125ZM8.38359 14.1914C6.63633 14.1914 5.22539 12.7723 5.22539 11.0332 5.22539 9.29414 6.63633 7.875 8.38359 7.875 10.1227 7.875 11.5418 9.29414 11.5418 11.0332 11.5418 12.7805 10.1309 14.1914 8.38359 14.1914ZM31.5246 34.125 26.0777 34.125 26.0777 25.5938C26.0777 23.5594 26.0367 20.9426 23.2477 20.9426 20.4094 20.9426 19.9746 23.1574 19.9746 25.4461L19.9746 34.125 14.5277 34.125 14.5277 16.5867 19.7531 16.5867 19.7531 18.982 19.827 18.982C20.557 17.6039 22.3371 16.152 24.9867 16.152 30.4992 16.152 31.5246 19.7859 31.5246 24.5109L31.5246 34.125Z" transform="matrix(1.27891 0 0 1 48 761)"/></g></svg>